<svg id="All" xmlns="http://www.w3.org/2000/svg" viewBox="0 0 364 172"><defs><style>.cls-1{fill:#099fd6;}.cls-2{fill:#fff;}.cls-3{fill:none;stroke:#fff;stroke-miterlimit:10;stroke-width:3px;}.cls-4{fill:#09a0d6;}</style></defs><title>hampter</title><rect class="cls-1" x="2.5" y="73.7499" width="359" height="25.0005"/><path class="cls-2" d="M377,190.4742v20H23v-20H377m5-5H18v30H382v-30Z" transform="translate(-18 -114.2242)"/><path class="cls-1" d="M279.7411,174.07c5.5576-5.3127,9.2269-14.4333,9.2269-24.7991,0-16.402-9.1809-29.6985-20.5061-29.6985l-.5-.3015c-21.1049,0-38.9572,8.8765-44.8969,21.1l-.0063.0142A120.4572,120.4572,0,0,0,199,137.9746l-.0381,0a120.4758,120.4758,0,0,0-24.027,2.3966c-5.94-12.2236-23.7919-21.1-44.8969-21.1l-.5.3015c-11.3252,0-20.5061,13.2964-20.5061,29.6985,0,10.3658,3.6693,19.4864,9.2269,24.7991l.045.0419a9.5051,9.5051,0,0,0-2.5183,3.751,59.3236,59.3236,0,0,0-5.2739,10.7l-.1293.1494a24.99,24.99,0,0,0-2.335,28.831c4.6281,23.4746,24.8708,43.1041,52.513,52.6995,10.6272,7.0128,23.2465,10.53,37.9776,10.5283,14.2576-.0018,27.2472-3.7488,37.0189-9.8969,28.5269-9.321,49.5562-29.2208,54.362-53.14a24.9969,24.9969,0,0,0-2.3548-29.1714l-.1294-.1493a59.3775,59.3775,0,0,0-5.22-10.55q-1.1874-1.9071-2.5184-3.751Z" transform="translate(-18 -114.2242)"/><path class="cls-2" d="M118.2208,173.2734c-5.5576-5.3127-9.2269-14.4333-9.2269-24.7991,0-16.402,9.1809-29.6985,20.5061-29.6985,11.17,0,20.2477,12.9372,20.4944,29.0289l.0117.67c0,16.402-9.1809,29.6985-20.5061,29.6985a16.2849,16.2849,0,0,1-11.2341-4.8575Z" transform="translate(-18 -114.2242)"/><path class="cls-2" d="M268.4239,178.1727c-11.3252,0-20.5061-13.2965-20.5061-29.6985l.0117-.67c.2467-16.0917,9.3243-29.0289,20.4944-29.0289,11.3252,0,20.5061,13.2964,20.5061,29.6985,0,10.3658-3.6693,19.4864-9.2269,24.7991l-.0451.0419A16.2847,16.2847,0,0,1,268.4239,178.1727Z" transform="translate(-18 -114.2242)"/><path class="cls-1" d="M129.538,119.5723c11.17,0,20.2477,12.9372,20.4944,29.0289l.0006.0355a108.5507,108.5507,0,0,1,24.9081-8.2516l-.0063-.0142c-5.94-12.2236-23.7919-21.1-44.8969-21.1Z" transform="translate(-18 -114.2242)"/><path class="cls-1" d="M247.9675,148.6011a108.5927,108.5927,0,0,0-24.9024-8.23c5.94-12.2236,23.7919-21.1,44.8969-21.1l.5.3015c-11.17,0-20.2477,12.9371-20.4944,29.0289" transform="translate(-18 -114.2242)"/><path class="cls-1" d="M148.5812,138.2729c-3.017-10.9555-10.402-18.7007-19.0432-18.7007-11.3252,0-20.5061,13.2964-20.5061,29.6985,0,10.3658,3.6693,19.4864,9.2269,24.7991l.045.0419a16.2849,16.2849,0,0,0,11.2341,4.8575,14.5217,14.5217,0,0,0,4.4148-.6977,41.4726,41.4726,0,0,1-1.454-11.0008C132.4988,153.0693,139.3833,141.2033,148.5812,138.2729Z" transform="translate(-18 -114.2242)"/><path class="cls-1" d="M268.4619,119.5723c-8.6411,0-16.0261,7.7452-19.0432,18.7007,9.1979,2.93,16.0824,14.7964,16.0824,28.9978a41.4726,41.4726,0,0,1-1.454,11.0008,14.5213,14.5213,0,0,0,4.4147.6977,16.2847,16.2847,0,0,0,11.2341-4.8575l.0451-.0419c5.5576-5.3127,9.2269-14.4333,9.2269-24.7991C288.968,132.8687,279.7871,119.5723,268.4619,119.5723Z" transform="translate(-18 -114.2242)"/><path class="cls-3" d="M174.9032,140.5886a120.4578,120.4578,0,0,1,24.0588-2.41" transform="translate(-18 -114.2242)"/><path class="cls-3" d="M174.9032,140.5886a108.5507,108.5507,0,0,0-24.9081,8.2516" transform="translate(-18 -114.2242)"/><path class="cls-3" d="M247.9294,148.8046a108.5927,108.5927,0,0,0-24.9024-8.23" transform="translate(-18 -114.2242)"/><path class="cls-3" d="M198.962,138.1781l.038,0a120.4763,120.4763,0,0,1,24.027,2.3966" transform="translate(-18 -114.2242)"/><path class="cls-3" d="M118.2659,174.3152l-.045-.0419" transform="translate(-18 -114.2242)"/><path class="cls-3" d="M118.2659,174.3152A16.2849,16.2849,0,0,0,129.5,179.1727c11.3252,0,20.5061-13.2965,20.5061-29.6985,0-.2126-.008-.4225-.011-.6341" transform="translate(-18 -114.2242)"/><path class="cls-3" d="M149.9951,148.84l-.0006-.0355" transform="translate(-18 -114.2242)"/><path class="cls-3" d="M118.2208,174.2734c-5.5576-5.3127-9.2269-14.4333-9.2269-24.7991,0-16.402,9.1809-29.6985,20.5061-29.6985,11.17,0,20.2477,12.9372,20.4944,29.0289" transform="translate(-18 -114.2242)"/><path class="cls-3" d="M174.8969,140.5743c-5.94-12.2236-23.7919-21.1-44.8969-21.1" transform="translate(-18 -114.2242)"/><path class="cls-3" d="M174.9032,140.5886l-.0063-.0142" transform="translate(-18 -114.2242)"/><path class="cls-3" d="M247.9288,148.84a108.5517,108.5517,0,0,0-24.9081-8.2516" transform="translate(-18 -114.2242)"/><path class="cls-3" d="M174.8969,140.5743a108.5946,108.5946,0,0,0-24.9024,8.23" transform="translate(-18 -114.2242)"/><path class="cls-3" d="M198.962,138.1781a120.4572,120.4572,0,0,1,24.0587,2.41" transform="translate(-18 -114.2242)"/><path class="cls-3" d="M174.8969,140.5743a120.4758,120.4758,0,0,1,24.027-2.3966l.0381,0" transform="translate(-18 -114.2242)"/><path class="cls-3" d="M247.9288,148.84c-.0031.2116-.011.4214-.011.6341,0,16.402,9.1809,29.6985,20.5061,29.6985a16.2847,16.2847,0,0,0,11.2341-4.8575" transform="translate(-18 -114.2242)"/><path class="cls-3" d="M247.9288,148.84l.0006-.0355" transform="translate(-18 -114.2242)"/><path class="cls-3" d="M279.7031,174.2734l-.0451.0419" transform="translate(-18 -114.2242)"/><path class="cls-3" d="M247.9294,148.8046c.2467-16.0917,9.3243-29.0289,20.4944-29.0289,11.3252,0,20.5061,13.2964,20.5061,29.6985,0,10.3658-3.6693,19.4864-9.2269,24.7991" transform="translate(-18 -114.2242)"/><path class="cls-3" d="M223.027,140.5743c5.94-12.2236,23.7919-21.1,44.8969-21.1" transform="translate(-18 -114.2242)"/><path class="cls-3" d="M223.027,140.5743l-.0063.0142" transform="translate(-18 -114.2242)"/><path class="cls-3" d="M118.2659,174.3152a9.5051,9.5051,0,0,0-2.5183,3.751,59.3236,59.3236,0,0,0-5.2739,10.7l-.1293.1494a24.99,24.99,0,0,0-2.335,28.831c4.6281,23.4746,24.8708,43.1041,52.513,52.6995,10.6272,7.0128,23.2465,10.53,37.9776,10.5283,14.2576-.0018,27.2472-3.7488,37.0189-9.8969,28.5269-9.321,49.5562-29.2208,54.362-53.14a24.9969,24.9969,0,0,0-2.3548-29.1714l-.1294-.1493a59.3775,59.3775,0,0,0-5.22-10.55q-1.1874-1.9071-2.5184-3.751" transform="translate(-18 -114.2242)"/><path class="cls-2" d="M164.6506,178.6392a18.5,18.5,0,1,0,22.0121,24.5681L165.5784,178.44C165.269,178.5064,164.96,178.5564,164.6506,178.6392Z" transform="translate(-18 -114.2242)"/><path class="cls-2" d="M232.7528,178.6392a18.5,18.5,0,1,1-22.0121,24.5681L231.825,178.44C232.1343,178.5064,232.4438,178.5564,232.7528,178.6392Z" transform="translate(-18 -114.2242)"/><rect class="cls-1" x="44.5" y="2.4999" width="29" height="167.0005"/><path class="cls-2" d="M89,119.2242v162H65v-162H89m5-5H60v172H94v-172Z" transform="translate(-18 -114.2242)"/><rect class="cls-1" x="289.5" y="2.4999" width="29" height="167.0005"/><path class="cls-2" d="M334,119.2242v162H310v-162h24m5-5H305v172h34v-172Z" transform="translate(-18 -114.2242)"/><rect class="cls-1" x="319.5" y="30.7499" width="29" height="110.5005"/><path class="cls-2" d="M364,147.4742v105.5H340v-105.5h24m5-5H335v115.5h34v-115.5Z" transform="translate(-18 -114.2242)"/><rect class="cls-1" x="15.5" y="30.7499" width="29" height="110.5005"/><path class="cls-2" d="M60,147.4742v105.5H36v-105.5H60m5-5H31v115.5H65v-115.5Z" transform="translate(-18 -114.2242)"/><polygon class="cls-2" points="174 148.776 174 140.394 180 137.394 180 148.776 174 148.776"/><path class="cls-2" d="M197,253.2361V262h-4v-6.7639l4-2M199,250l-8,4v10h8V250Z" transform="translate(-18 -114.2242)"/><polygon class="cls-2" points="182 149.776 182 137.315 189 140.425 189 149.776 182 149.776"/><path class="cls-2" d="M201,253.0775l5,2.2222V263h-5v-9.9225M199,250v15h9V254l-9-4Z" transform="translate(-18 -114.2242)"/><path class="cls-4" d="M200,252a1.8766,1.8766,0,0,0-1-2c-.7061-.1851-1.8416.5748-2,2v14h3Z" transform="translate(-18 -114.2242)"/><path class="cls-4" d="M198.75,250c0,5.5228-5.9919,7-14,7s-14.5-4.4772-14.5-10v-3c0,5.5228,6.4919,10,14.5,10s14-7.4772,14-13c0,5.5228,6.9919,13,15,13s14.5-4.4772,14.5-10v3c0,5.5228-6.4919,10-14.5,10S198.75,255.5228,198.75,250Z" transform="translate(-18 -114.2242)"/><path class="cls-2" d="M198.75,248c0,5.5228-5.9919,7-14,7s-14.5-4.4772-14.5-10v-3c0,5.5228,6.4919,10,14.5,10s14-7.4772,14-13c0,5.5228,6.9919,13,15,13s14.5-4.4772,14.5-10v3c0,5.5228-6.4919,10-14.5,10S198.75,253.5228,198.75,248Z" transform="translate(-18 -114.2242)"/></svg>